<svg xmlns="http://www.w3.org/2000/svg" viewBox="0 0 800 1000"><defs><linearGradient id="bg" x2="0" y2="1"><stop stop-color="#67735a"/><stop offset="1" stop-color="#25362b"/></linearGradient><linearGradient id="pod" x2="1" y2="1"><stop stop-color="#c9cf87"/><stop offset=".48" stop-color="#819251"/><stop offset="1" stop-color="#465a38"/></linearGradient><filter id="shadow"><feGaussianBlur stdDeviation="12"/></filter></defs><path fill="url(#bg)" d="M0 0h800v1000H0z"/><ellipse cx="405" cy="770" rx="280" ry="77" fill="#10170f" opacity=".48" filter="url(#shadow)"/><g fill="url(#pod)" stroke="#dbe0a3" stroke-opacity=".4" stroke-width="4"><g transform="rotate(-32 270 330)"><ellipse cx="270" cy="330" rx="63" ry="128"/><path d="M236 240q36 90 0 180M270 210q35 120 0 240M303 240q-34 90 0 180" fill="none"/></g><g transform="rotate(29 500 320)"><ellipse cx="500" cy="320" rx="60" ry="124"/><path d="M467 235q34 85 0 170M500 200q33 120 0 240M532 235q-33 85 0 170" fill="none"/></g><g transform="rotate(-15 400 530)"><ellipse cx="400" cy="530" rx="69" ry="138"/><path d="M362 430q39 100 0 200M400 400q38 130 0 260M438 430q-38 100 0 200" fill="none"/></g><g transform="rotate(38 250 690)"><ellipse cx="250" cy="690" rx="59" ry="119"/><path d="M218 610q32 80 0 160M250 575q33 115 0 230M282 610q-32 80 0 160" fill="none"/></g><g transform="rotate(-30 560 700)"><ellipse cx="560" cy="700" rx="62" ry="127"/><path d="M526 615q35 85 0 170M560 575q35 125 0 250M594 615q-34 85 0 170" fill="none"/></g></g><path d="M90 95h620" stroke="#f0e6c5" opacity=".25"/></svg>
