<svg xmlns="http://www.w3.org/2000/svg" viewBox="0 0 800 1000"><defs><linearGradient id="bg" x2="0" y2="1"><stop stop-color="#a9a984"/><stop offset="1" stop-color="#304733"/></linearGradient><radialGradient id="berry"><stop stop-color="#cee2a0"/><stop offset=".52" stop-color="#64894b"/><stop offset="1" stop-color="#29442d"/></radialGradient></defs><path fill="url(#bg)" d="M0 0h800v1000H0z"/><g fill="#d6d7ae" opacity=".16"><ellipse cx="125" cy="190" rx="180" ry="330" transform="rotate(-27 125 190)"/><ellipse cx="703" cy="650" rx="150" ry="330" transform="rotate(30 703 650)"/></g><g fill="none" stroke="#344d2d" stroke-width="16" stroke-linecap="round"><path d="M405 90c-30 170 45 300-12 470s70 220 5 370"/><path d="M396 270C250 320 212 470 180 660M399 420c130 5 190 120 244 250M385 600c-95 5-155 105-189 217"/></g><g fill="url(#berry)" stroke="#c7d39a" stroke-opacity=".35" stroke-width="3"><circle cx="370" cy="195" r="36"/><circle cx="440" cy="225" r="39"/><circle cx="352" cy="285" r="40"/><circle cx="423" cy="315" r="43"/><circle cx="380" cy="373" r="39"/><circle cx="435" cy="432" r="42"/><circle cx="352" cy="490" r="40"/><circle cx="418" cy="540" r="44"/><circle cx="338" cy="592" r="39"/><circle cx="420" cy="655" r="41"/><circle cx="316" cy="700" r="37"/><circle cx="385" cy="766" r="42"/></g><g fill="#dbe4b0" opacity=".48"><circle cx="358" cy="181" r="7"/><circle cx="428" cy="210" r="7"/><circle cx="341" cy="270" r="8"/><circle cx="410" cy="300" r="8"/><circle cx="369" cy="359" r="7"/><circle cx="407" cy="525" r="8"/></g></svg>
